<svg width="152" height="152" viewBox="0 0 152 152" fill="none" xmlns="http://www.w3.org/2000/svg">
<g clip-path="url(#clip0)">
<path d="M76.0002 152C117.974 152 152 117.974 152 76.0002C152 34.0264 117.974 0 76.0002 0C34.0264 0 0 34.0264 0 76.0002C0 117.974 34.0264 152 76.0002 152Z" fill="#E24C4B"/>
<path d="M152 76.0001C152 117.8 117.8 152 75.9998 152C51.7749 152 30.3999 141.075 16.6248 123.5C29.4498 133.95 46.0748 140.125 64.1247 140.125C105.925 140.125 140.125 105.925 140.125 64.1253C140.125 46.0755 133.95 29.4504 123.5 16.6254C141.075 30.3999 152 51.7749 152 76.0001Z" fill="#D1403F"/>
<path d="M110.675 110.675C107.825 113.525 103.075 113.525 100.225 110.675L76.0002 86.4503L51.7753 110.675C48.9254 113.525 44.1751 113.525 41.3252 110.675C38.4753 107.825 38.4753 103.075 41.3252 100.225L65.5501 76.0002L41.3252 51.7753C38.4753 48.9254 38.4753 44.1752 41.3252 41.3253C44.1751 38.4754 48.9254 38.4754 51.7753 41.3253L76.0002 65.5502L100.225 41.3253C103.075 38.4754 107.825 38.4754 110.675 41.3253C113.525 44.1752 113.525 48.9254 110.675 51.7753L86.4502 76.0002L110.675 100.225C113.525 103.075 113.525 107.825 110.675 110.675Z" fill="white"/>
</g>
<defs>
<clipPath id="clip0">
<rect width="152" height="152" fill="white"/>
</clipPath>
</defs>
</svg>
