<svg width="152" height="152" viewBox="0 0 152 152" fill="none" xmlns="http://www.w3.org/2000/svg">
<g clip-path="url(#clip0)">
<path d="M75.9996 0C34.0937 0 0 34.0929 0 75.9996C0 117.906 34.0937 152 75.9996 152C117.906 152 151.999 117.906 151.999 75.9996C151.999 34.0929 117.906 0 75.9996 0ZM119.64 63.1626L71.8932 110.909C69.863 112.939 67.1643 114.057 64.2935 114.057C61.4227 114.057 58.724 112.939 56.6938 110.909L32.3593 86.5748C30.3291 84.5446 29.2109 81.8459 29.2109 78.9751C29.2109 76.1035 30.3291 73.4048 32.3593 71.3746C34.3887 69.3444 37.0874 68.2262 39.959 68.2262C42.8298 68.2262 45.5293 69.3444 47.5587 71.3754L64.2927 88.1086L104.439 47.9624C106.469 45.9322 109.168 44.8148 112.039 44.8148C114.909 44.8148 117.608 45.9322 119.638 47.9624C123.83 52.1544 123.83 58.9722 119.64 63.1626Z" fill="#0AD35B"/>
<path d="M152 76.0001C152 117.8 117.8 152 75.9998 152C51.7749 152 30.3999 141.075 16.6248 123.5C29.4498 133.95 46.0748 140.125 64.1247 140.125C105.925 140.125 140.125 105.925 140.125 64.1253C140.125 46.0755 133.95 29.4504 123.5 16.6254C141.075 30.3999 152 51.7749 152 76.0001Z" fill="#00B74A"/>
</g>
<defs>
<clipPath id="clip0">
<rect width="152" height="152" fill="white"/>
</clipPath>
</defs>
</svg>
